<?xml version="1.0" ?><svg viewBox="0 0 64 64" xmlns="http://www.w3.org/2000/svg"><rect height="58" rx="4" style="fill:#caeae9" width="34" x="9" y="3"/><path d="M43,49H62V25H49V14h0a6,6,0,0,0-6,6Z" style="fill:#f2daae"/><circle cx="6" cy="28" r="3" style="fill:#f2daae"/><circle cx="6" cy="34" r="3" style="fill:#f2daae"/><circle cx="6" cy="40" r="3" style="fill:#f2daae"/><circle cx="6" cy="46" r="3" style="fill:#f2daae"/><path d="M43,9H9V7a4,4,0,0,1,4-4H39a4,4,0,0,1,4,4Z" style="fill:#62c4c3"/><path d="M9,55H43v2a4,4,0,0,1-4,4H13a4,4,0,0,1-4-4Z" style="fill:#62c4c3"/><rect height="8" style="fill:#efbc2e" width="10" x="13" y="15"/><rect height="8" style="fill:#efbc2e" width="10" x="29" y="28"/><rect height="8" style="fill:#efbc2e" width="10" x="13" y="41"/><path d="M49,26H62V24H50V14a1,1,0,0,0-1-1,6.973,6.973,0,0,0-5,2.111V7a5.006,5.006,0,0,0-5-5H13A5.006,5.006,0,0,0,8,7V24.556A3.959,3.959,0,0,0,6,24a3.983,3.983,0,0,0-2.618,7,3.947,3.947,0,0,0,0,6,3.947,3.947,0,0,0,0,6A3.979,3.979,0,0,0,8,49.444V57a5.006,5.006,0,0,0,5,5H39a5.006,5.006,0,0,0,5-5V50H62V48H44V20a5.008,5.008,0,0,1,4-4.9V25A1,1,0,0,0,49,26ZM13,4H39a3,3,0,0,1,3,3V8H10V7A3,3,0,0,1,13,4ZM4,28a2,2,0,1,1,2,2A2,2,0,0,1,4,28Zm0,6a2,2,0,1,1,2,2A2,2,0,0,1,4,34Zm0,6a2,2,0,1,1,2,2A2,2,0,0,1,4,40Zm2,8a2,2,0,1,1,2-2A2,2,0,0,1,6,48ZM39,60H13a3,3,0,0,1-3-3V56H42v1A3,3,0,0,1,39,60Zm3-6H10V10H42V54Z" style="fill:#3a4249"/><path d="M13,24H23a1,1,0,0,0,1-1V15a1,1,0,0,0-1-1H13a1,1,0,0,0-1,1v8A1,1,0,0,0,13,24Zm1-8h8v6H14Z" style="fill:#3a4249"/><path d="M39,27H29a1,1,0,0,0-1,1v8a1,1,0,0,0,1,1H39a1,1,0,0,0,1-1V28A1,1,0,0,0,39,27Zm-1,8H30V29h8Z" style="fill:#3a4249"/><rect height="2" style="fill:#3a4249" width="14" x="26" y="14"/><rect height="2" style="fill:#3a4249" width="14" x="26" y="18"/><rect height="2" style="fill:#3a4249" width="10" x="26" y="22"/><path d="M23,40H13a1,1,0,0,0-1,1v8a1,1,0,0,0,1,1H23a1,1,0,0,0,1-1V41A1,1,0,0,0,23,40Zm-1,8H14V42h8Z" style="fill:#3a4249"/><rect height="2" style="fill:#3a4249" width="14" x="26" y="40"/><rect height="2" style="fill:#3a4249" width="14" x="26" y="44"/><rect height="2" style="fill:#3a4249" width="2" x="26" y="48"/><rect height="2" style="fill:#3a4249" width="14" x="12" y="27"/><rect height="2" style="fill:#3a4249" width="14" x="12" y="31"/><rect height="2" style="fill:#3a4249" width="14" x="12" y="35"/><rect height="2" style="fill:#3a4249" width="2" x="38" y="22"/><rect height="2" style="fill:#3a4249" width="2" x="30" y="48"/><rect height="2" style="fill:#3a4249" width="2" x="34" y="48"/><rect height="2" style="fill:#3a4249" width="2" x="38" y="48"/></svg>